# Wavefront OBJ exported by MilkShape 3D

mtllib cube.mtl

v -0.000001 -0.055079 -0.035572
v -22.557961 -0.054996 -0.035577
v -22.557961 -0.054996 -22.581848
v -0.001858 -0.058109 -22.581846
v 0.001858 -0.052044 22.526352
v -22.557959 -0.054996 22.526352
v 22.550301 -0.055157 -0.035576
v 22.550299 -0.055159 -22.581848
v 22.550297 -0.055157 22.526863
v -0.000001 45.055058 -0.035572
v -0.001858 45.054535 -22.581846
v -22.557961 45.055073 -22.581848
v -22.557961 45.055077 -0.035576
v 0.001858 45.055595 22.526352
v -22.557959 45.055088 22.526352
v 22.550304 45.055042 -0.035576
v 22.550299 45.055038 -22.581848
v 22.550303 45.055046 22.525845
v -22.557961 22.492350 -0.035577
v -22.557961 22.492346 -22.581848
v -22.557959 22.492353 22.526352
v 22.550304 22.492012 -0.035576
v 22.550303 22.492016 22.526358
v 22.550299 22.492006 -22.581848
v 0.001858 22.495016 22.526352
v -0.001858 22.489359 -22.581846
# 26 vertices

vt 0.031250 0.968750
vt 0.031250 0.031250
vt 0.968750 0.031250
vt 0.968750 0.968750
# 4 texture coordinates

vn -0.000048 -1.000000 0.000090
vn -0.707092 -0.707121 0.000032
vn -0.666703 -0.666656 -0.333283
vn -0.000002 -0.707138 -0.707075
vn -0.000008 -0.707072 0.707141
vn -0.408204 -0.408257 0.816514
vn 0.707121 -0.707092 0.000032
vn 0.408293 -0.408239 -0.816479
vn 0.666630 -0.666677 0.333387
vn 0.000009 1.000000 -0.000016
vn 0.000000 0.707101 -0.707112
vn -0.333324 0.666665 -0.666673
vn -0.707109 0.707104 -0.000006
vn 0.000006 0.707112 0.707101
vn -0.816500 0.408245 0.408245
vn 0.707104 0.707109 -0.000006
vn 0.816493 0.408251 -0.408252
vn 0.333347 0.666671 0.666655
vn -1.000000 -0.000000 0.000000
vn -0.707107 0.000000 -0.707107
vn -0.707107 -0.000000 0.707107
vn 1.000000 -0.000000 -0.000000
vn 0.707104 0.000011 0.707110
vn 0.707107 -0.000000 -0.707107
vn 0.000004 0.000004 1.000000
vn -0.000000 0.000000 -1.000000
# 26 normals

g Regroup00
usemtl Image095CC710_095CB790.png
s 1
f 1/1/1 2/2/2 3/3/3
f 1/1/1 3/3/3 4/4/4
f 5/4/5 6/3/6 2/2/2
f 5/4/5 2/2/2 1/1/1
f 7/2/7 1/1/1 4/4/4
f 7/2/7 4/4/4 8/3/8
f 9/3/9 5/4/5 1/1/1
f 9/3/9 1/1/1 7/2/7
f 10/1/10 11/4/11 12/3/12
f 10/1/10 12/3/12 13/2/13
f 14/4/14 10/1/10 13/2/13
f 14/4/14 13/2/13 15/3/15
f 16/2/16 17/3/17 11/4/11
f 16/2/16 11/4/11 10/1/10
f 18/3/18 16/2/16 10/1/10
f 18/3/18 10/1/10 14/4/14
f 19/1/19 20/4/20 3/3/3
f 19/1/19 3/3/3 2/2/2
f 21/4/21 19/1/19 2/2/2
f 21/4/21 2/2/2 6/3/6
f 13/2/13 12/3/12 20/4/20
f 13/2/13 20/4/20 19/1/19
f 15/3/15 13/2/13 19/1/19
f 15/3/15 19/1/19 21/4/21
f 22/1/22 23/4/23 9/3/9
f 22/1/22 9/3/9 7/2/7
f 24/4/24 22/1/22 7/2/7
f 24/4/24 7/2/7 8/3/8
f 16/2/16 18/3/18 23/4/23
f 16/2/16 23/4/23 22/1/22
f 17/3/17 16/2/16 22/1/22
f 17/3/17 22/1/22 24/4/24
f 25/1/25 21/4/21 6/3/6
f 25/1/25 6/3/6 5/2/5
f 23/4/23 25/1/25 5/2/5
f 23/4/23 5/2/5 9/3/9
f 14/2/14 15/3/15 21/4/21
f 14/2/14 21/4/21 25/1/25
f 18/3/18 14/2/14 25/1/25
f 18/3/18 25/1/25 23/4/23
f 26/1/26 24/4/24 8/3/8
f 26/1/26 8/3/8 4/2/4
f 20/4/20 26/1/26 4/2/4
f 20/4/20 4/2/4 3/3/3
f 11/2/11 17/3/17 24/4/24
f 11/2/11 24/4/24 26/1/26
f 12/3/12 11/2/11 26/1/26
f 12/3/12 26/1/26 20/4/20
# 48 triangles in group

# 48 triangles total

